:SAMPLES-PER-SECOND 30
:FULLY-SPECIFIED
:DEGREES
66
root  11.2896 38.9481 2.77843 -106.857 -84.3333 100.498
RightUpLeg  -18.4238 -8.71166 -8.60217
RightLeg  -2.47552 -3.23522 3.901
RightFoot  -0.52677 -0.849043 8.93679
RightToes  0.00048216 0.542163 -0.142577
Spine  10.2831 -2.19404 -9.65968
Spine1  7.71934 -4.8408 6.37213
HEad  1.21625 6.27846 -1.80324
LeftShoulder1  6.82567 -10.6471 -41.8569
LeftArm  -0.734521 -1.71681 -31.7632
LeftForeArm  32.2543 -23.5471 -3.38416
LeftHand  -0.25398 0.0180481 5.50724
RightShoulder  3.25702 5.68243 29.4773
RightArm  -1.63705 -22.4418 41.6189
RightForeArm  3.86024 20.9964 4.83081
RightHand  -1.42264 3.97483 -17.8351
LeftUpLeg  13.1658 5.24378 -6.41176
LeftLeg  13.7318 10.6466 -1.4086
LeftFoot  -19.889 0.304012 2.49493
LeftToes  1.06247e-005 4.65855e-005 -8.18501e-006
67
root  9.60265 38.53 2.59723 -97.145 -84.1521 90.5962
RightUpLeg  -18.9888 -9.48766 -8.89177
RightLeg  -4.03319 -4.38234 4.51163
RightFoot  -2.26195 -0.786848 9.63259
RightToes  0.00048216 0.542163 -0.142577
Spine  10.2509 -2.23901 -9.98413
Spine1  7.48181 -5.09227 7.20318
HEad  0.750635 5.30216 -1.91935
LeftShoulder1  6.86662 -10.7102 -41.9262
LeftArm  -0.833872 -4.6449 -31.8463
LeftForeArm  32.1903 -23.4497 -3.37723
LeftHand  -0.25398 0.0180481 5.50724
RightShoulder  3.28654 5.7566 29.5127
RightArm  -5.54835 -22.5839 41.3613
RightForeArm  6.4197 17.4426 5.32415
RightHand  -1.30785 3.51757 -17.2315
LeftUpLeg  15.7571 6.74643 -5.51625
LeftLeg  15.0305 7.84226 -1.30847
LeftFoot  -22.1861 0.250539 1.21305
LeftToes  1.06247e-005 4.65855e-005 -8.18501e-006
68
root  7.90757 38.2307 2.39087 -85.8494 -84.5524 79.0004
RightUpLeg  -20.2422 -9.98423 -8.26192
RightLeg  0.831337 -8.08295 4.04305
RightFoot  -0.448324 -0.68171 7.2399
RightToes  0.00048216 0.542163 -0.142577
Spine  10.5583 -2.3865 -9.28152
Spine1  7.55119 -5.53799 8.0997
HEad  0.00225517 4.50871 -2.18573
LeftShoulder1  6.94663 -10.8545 -41.9944
LeftArm  -1.65826 -6.38611 -32.0355
LeftForeArm  32.4976 -24.1506 -3.46894
LeftHand  -0.25398 0.0180481 5.50724
RightShoulder  3.38906 5.96255 29.8295
RightArm  -9.32309 -22.2934 40.7328
RightForeArm  10.753 13.7953 5.67705
RightHand  -1.08128 2.61077 -15.8528
LeftUpLeg  18.4005 8.67347 -3.43265
LeftLeg  16.398 4.41917 -0.833195
LeftFoot  -22.9638 0.172495 0.350028
LeftToes  1.06247e-005 4.65855e-005 -8.18501e-006
69
root  6.08105 38.0077 2.17244 -68.0613 -85.2739 60.8902
RightUpLeg  -22.0625 -13.1196 -5.79768
RightLeg  8.72249 -8.00453 1.9248
RightFoot  4.54846 -0.428508 3.3396
RightToes  0.00048216 0.542163 -0.142577
Spine  10.6412 -2.94324 -7.29635
Spine1  7.4427 -6.0419 8.25686
HEad  -0.359993 3.99885 -2.592
LeftShoulder1  7.06019 -11.0694 -42.0564
LeftArm  -2.77914 -6.22447 -32.0929
LeftForeArm  33.2025 -25.9739 -3.81281
LeftHand  -0.25398 0.0180481 5.50724
RightShoulder  3.51329 6.14773 30.4408
RightArm  -12.0704 -21.9984 39.977
RightForeArm  15.4725 10.6476 5.45862
RightHand  -0.848047 1.59651 -14.2369
LeftUpLeg  20.7363 9.5648 -0.745161
LeftLeg  18.4828 1.63388 0.0817053
LeftFoot  -23.0356 -0.0941547 -2.2411
LeftToes  1.06247e-005 4.65855e-005 -8.18501e-006
70
root  4.15772 37.9019 1.9817 -46.48 -86.4499 39.0011
RightUpLeg  -23.7109 -18.052 -1.53138
RightLeg  15.7489 -2.50958 -0.1339
RightFoot  8.64161 0.112019 -0.343138
RightToes  0.00048216 0.542163 -0.142577
Spine  10.4692 -3.54644 -3.53444
Spine1  7.28005 -6.08085 7.40948
HEad  -0.142166 3.81064 -3.33555
LeftShoulder1  7.19841 -11.2275 -42.4459
LeftArm  -3.6691 -4.29148 -31.9562
LeftForeArm  34.379 -28.7268 -4.34932
LeftHand  -0.25398 0.0180481 5.50724
RightShoulder  3.61221 6.25461 31.0632
RightArm  -13.7136 -21.8891 39.3411
RightForeArm  18.5934 8.50752 4.86391
RightHand  -0.705787 0.867248 -13.1991
LeftUpLeg  22.4181 8.72705 1.96542
LeftLeg  21.3742 1.29941 0.971702
LeftFoot  -21.423 -0.515538 -7.52252
LeftToes  1.06247e-005 4.65855e-005 -8.18501e-006
71
root  2.24481 37.9315 1.78149 -14.9089 -87.8652 7.20607
RightUpLeg  -24.0162 -18.4757 1.07198
RightLeg  21.421 -0.458811 -0.538408
RightFoot  8.20842 0.652344 -3.51172
RightToes  0.00048216 0.542163 -0.142577
Spine  10.1643 -3.65411 0.649095
Spine1  7.34424 -5.50171 6.47888
HEad  0.325697 3.78274 -4.27773
LeftShoulder1  7.3213 -11.2464 -43.1587
LeftArm  -4.37005 -1.37312 -32.025
LeftForeArm  36.112 -31.6906 -4.93279
LeftHand  -0.25398 0.0180481 5.50724
RightShoulder  3.70249 6.40564 31.4137
RightArm  -14.6396 -21.7546 38.8961
RightForeArm  19.1277 7.52908 4.42144
RightHand  -0.651363 0.517912 -12.8672
LeftUpLeg  22.1424 8.04993 4.58334
LeftLeg  26.8609 3.39271 2.24443
LeftFoot  -15.3174 -0.314191 -11.5738
LeftToes  1.06247e-005 4.65855e-005 -8.18501e-006
72
root  0.462333 38.0107 1.5151 28.4008 -88.0149 -35.994
RightUpLeg  -23.2406 -17.9775 2.51882
RightLeg  25.7089 -0.846388 -0.675434
RightFoot  4.33758 0.75062 -5.1948
RightToes  0.00048216 0.542163 -0.142577
Spine  9.82935 -3.42581 3.49366
Spine1  7.44777 -4.8466 6.46886
HEad  0.884707 3.46539 -4.80044
LeftShoulder1  7.3814 -11.2084 -43.6518
LeftArm  -4.81486 1.77139 -32.7327
LeftForeArm  37.8375 -34.1239 -5.42421
LeftHand  -0.25398 0.0180481 5.50724
RightShoulder  3.81187 6.64482 31.6125
RightArm  -14.8758 -21.3122 38.5465
RightForeArm  17.7666 7.64222 4.45297
RightHand  -0.6563 0.526817 -12.9426
LeftUpLeg  18.1703 8.46399 6.98892
LeftLeg  36.509 5.94814 5.11908
LeftFoot  -3.89407 0.600873 -9.85718
LeftToes  1.06247e-005 4.65855e-005 -8.18501e-006
73
root  -1.07868 38.076 1.22776 40.8849 -86.2184 -48.0563
RightUpLeg  -22.1353 -19.002 3.79411
RightLeg  28.4128 -1.34355 -1.02725
RightFoot  0.287673 0.503269 -4.88956
RightToes  0.00048216 0.542163 -0.142577
Spine  9.78791 -3.46818 5.5878
Spine1  7.35214 -4.55617 7.18578
HEad  1.61468 2.43455 -4.50755
LeftShoulder1  7.40991 -11.2593 -43.671
LeftArm  -4.60487 4.56675 -33.842
LeftForeArm  38.9178 -35.6468 -5.7472
LeftHand  -0.25398 0.0180481 5.50724
RightShoulder  3.92714 6.83672 32.033
RightArm  -14.113 -20.325 38.1126
RightForeArm  15.8627 8.65118 4.886
RightHand  -0.711802 0.832179 -13.3677
LeftUpLeg  11.1448 7.69007 8.61888
LeftLeg  47.7144 7.22067 8.82102
LeftFoot  7.62792 0.719666 -4.47385
LeftToes  1.06247e-005 4.65855e-005 -8.18501e-006
